G04 ================== begin FILE IDENTIFICATION RECORD ==================*
G04 Layout Name:  C:/OrCAD/allegro/led_project 1.brd*
G04 Film Name:    BotL*
G04 File Format:  Gerber RS274X*
G04 File Origin:  Cadence Allegro 22.1-P001*
G04 Origin Date:  Fri Apr 25 10:11:57 2025*
G04 *
G04 Layer:  VIA CLASS/BOTTOM*
G04 Layer:  PIN/BOTTOM*
G04 Layer:  ETCH/BOTTOM*
G04 *
G04 Offset:    (0.0000 0.0000)*
G04 Mirror:    No*
G04 Mode:      Positive*
G04 Rotation:  0*
G04 FullContactRelief:  No*
G04 UndefLineWidth:     0.1000*
G04 ================== end FILE IDENTIFICATION RECORD ====================*
%FSLAX25Y25*MOMM*%
%IR0*IPPOS*OFA0.00000B0.00000*MIA0B0*SFA1.00000B1.00000*%
%ADD11C,.6*%
%ADD12R,1.1999X.8999*%
%ADD13R,.8001X.8001*%
%ADD10O,2.X1.5999*%
%ADD14C,.3*%
%ADD15C,.5*%
G75*
%LPD*%
G75*
G36*
G01X7200000Y7650000D02*
X8450000D01*
Y6913020D01*
X8433820D01*
X8432330Y6915450D01*
G03X8338500Y6968020I-93828J-57447D01*
G01X8298500D01*
G03Y6747980I-5J-110020D01*
G01X8338500D01*
G03X8432330Y6800550I2J110017D01*
G01X8433820Y6802980D01*
X8450000D01*
Y6668600D01*
G02X8431270Y6663140I-10160J-2D01*
G03X8338500Y6714020I-92771J-59136D01*
G01X8298500D01*
G03Y6493980I-5J-110020D01*
G01X8338500D01*
G03X8431270Y6544860I-1J110016D01*
G02X8450000Y6539400I8570J-5458D01*
G01Y5700000D01*
X7200000D01*
Y7650000D01*
G37*
G54D10*
X8318500Y6604000D03*
Y6858000D03*
G54D11*
X7850000Y6130000D03*
G54D12*
X9000000Y6895000D03*
Y7105000D03*
G54D13*
Y6420000D03*
Y6280000D03*
G54D14*
G01X8318500Y6488900D02*
Y6604000D01*
G01D02*
Y6719100D01*
G01X8183400Y6604000D02*
X8318500D01*
G54D15*
G01Y6858000D02*
X8473500D01*
X8600000Y6984500D01*
Y7050000D01*
X8650000Y7100000D01*
X8880000D01*
X8885000Y7105000D01*
X9000000D01*
G01X8318500Y6604000D02*
X8473500D01*
X8600000Y6477500D01*
Y6350000D01*
X8650000Y6300000D01*
X8884990D01*
X8904990Y6280000D01*
X9000000D01*
G01Y6420000D02*
Y6895000D01*
M02*
